<?xml version="1.0" encoding="UTF-8" standalone="no"?>
<!-- Uploaded to: SVG Repo, www.svgrepo.com, Generator: SVG Repo Mixer Tools -->

<svg
   fill="#000000"
   width="655.99902"
   height="703.99902"
   viewBox="0 0 839.67875 901.11875"
   version="1.1"
   id="svg4"
   xmlns="http://www.w3.org/2000/svg"
   xmlns:svg="http://www.w3.org/2000/svg">
  <defs
     id="defs8" />
  <path
     d="m 510.668,650.927 230.358,233.067 c 22.423,22.687 58.944,22.853 81.572,0.373 22.628,-22.48 22.795,-59.096 0.372,-81.783 L 600.822,577.824 C 654.762,516.484 687.51,435.717 687.51,347.268 687.51,155.594 533.724,0 343.755,0 153.786,0 0,155.595 0,347.268 c 0,191.674 153.786,347.268 343.755,347.268 60.591,0 117.501,-15.829 166.914,-43.608 z M 343.754,578.875 c -126.02,0 -228.394,-103.577 -228.394,-231.608 0,-128.031 102.374,-231.608 228.394,-231.608 126.02,0 228.394,103.577 228.394,231.608 0,128.031 -102.374,231.608 -228.394,231.608 z"
     id="path2" />
</svg>
