<?xml version="1.0" encoding="UTF-8" standalone="no"?>
<!-- Uploaded to: SVG Repo, www.svgrepo.com, Generator: SVG Repo Mixer Tools -->

<svg
   fill="#000000"
   width="662.98022"
   height="662.97931"
   viewBox="0 0 848.61469 848.61352"
   version="1.1"
   id="svg4"
   xmlns="http://www.w3.org/2000/svg"
   xmlns:svg="http://www.w3.org/2000/svg">
  <defs
     id="defs8" />
  <path
     d="m 552.08845,24.99375 c 33.327,-33.325 87.356,-33.325 120.683,0 l 150.848,150.85 c 33.327,33.325 33.327,87.355 0,120.679 l -476.915,476.918 a 42.696,42.696 0 0 1 -18.751,10.94 l -219.683,61.022 c -63.964001,17.766 -122.827001,-41.097 -105.0590014,-105.058 l 61.0230004,-219.682 a 42.654,42.654 0 0 1 10.94,-18.752 L 552.08845,24.99475 Z m 211.191,211.189 -150.848,-150.849 -446.748,446.746 150.849,150.848 446.747,-446.744 z m -528.625,485.55 -107.773,-107.776 -41.451001,149.227 z"
     id="path2" />
</svg>
