<?xml version="1.0" encoding="UTF-8" standalone="no"?>
<!-- Uploaded to: SVG Repo, www.svgrepo.com, Generator: SVG Repo Mixer Tools -->

<svg
   fill="#000000"
   width="768.00079"
   height="767.99921"
   viewBox="0 0 983.04102 983.03898"
   version="1.1"
   id="svg4"
   xmlns="http://www.w3.org/2000/svg"
   xmlns:svg="http://www.w3.org/2000/svg">
  <defs
     id="defs8" />
  <path
     d="M 932.861,417.95 H 800.236 c -13.219,0 -24.771,-8.566 -28.833,-21.056 a 287.154,287.154 0 0 0 -15.044,-37.243 c -5.623,-11.608 -3.402,-25.507 5.785,-34.725 l 93.467,-93.457 c 3.603,-3.606 3.603,-9.45 0.007,-13.049 l -91.012,-91.002 c -3.593,-3.596 -9.428,-3.596 -13.028,0.006 l -93.137,93.137 c -9.235,9.235 -23.241,11.437 -34.893,5.702 a 286.77,286.77 0 0 0 -37.487,-15.314 c -12.449,-4.069 -20.97,-15.623 -20.97,-28.808 V 50.18 a 9.221,9.221 0 0 0 -9.22,-9.22 H 427.173 a 9.221,9.221 0 0 0 -9.22,9.22 v 134.936 c 0,12.884 -8.139,24.247 -20.169,28.539 -12.09,4.337 -23.758,9.406 -34.928,15.18 -11.721,6.057 -26.027,3.952 -35.417,-5.438 l -95.973,-95.973 a 9.21,9.21 0 0 0 -13.035,10e-4 l -91.004,90.994 a 9.218,9.218 0 0 0 0,13.044 l 99.221,99.221 c 9.067,9.037 11.39,22.701 6.062,34.233 a 287.871,287.871 0 0 0 -12.483,31.962 c -4.053,12.493 -15.632,21.071 -28.861,21.071 H 50.183 a 9.221,9.221 0 0 0 -9.22,9.22 v 128.688 a 9.221,9.221 0 0 0 9.22,9.22 h 144.803 c 12.851,0 24.184,8.096 28.533,20.086 a 285.852,285.852 0 0 0 12.302,28.863 c 5.703,11.647 3.502,25.653 -5.737,34.892 L 127.421,751.582 c -3.597,3.594 -3.597,9.424 0.005,13.027 l 91.012,91.002 c 3.594,3.597 9.424,3.597 13.028,-0.006 L 334.474,752.597 c 9.215,-9.185 23.175,-11.413 34.781,-5.745 a 287.088,287.088 0 0 0 28.572,12.04 c 12.01,4.345 20.127,15.679 20.127,28.55 v 145.417 a 9.221,9.221 0 0 0 9.22,9.22 h 128.698 a 9.221,9.221 0 0 0 9.22,-9.22 V 790.426 c 0,-13.197 8.531,-24.752 20.982,-28.832 a 290.388,290.388 0 0 0 31.081,-12.211 c 11.534,-5.328 25.182,-3.01 34.226,6.034 l 100.205,100.195 c 3.593,3.596 9.428,3.596 13.028,-0.007 l 90.998,-90.988 c 3.602,-3.605 3.602,-9.444 0.006,-13.04 l -96.949,-96.949 c -9.367,-9.398 -11.469,-23.689 -5.42,-35.393 5.628,-10.907 10.588,-22.283 14.869,-34.1 4.355,-11.977 15.674,-20.056 28.509,-20.056 h 136.235 a 9.221,9.221 0 0 0 9.22,-9.22 V 427.171 a 9.221,9.221 0 0 0 -9.22,-9.22 z m 0,-40.96 c 27.713,0 50.18,22.467 50.18,50.18 v 128.688 c 0,27.713 -22.467,50.18 -50.18,50.18 H 804.023 a 329.929,329.929 0 0 1 -10.926,25.092 l 91.482,91.482 c 19.589,19.589 19.589,51.354 -10e-4,70.961 l -90.998,90.988 c -19.592,19.609 -51.381,19.609 -70.966,0.007 L 627.61,789.574 a 331.648,331.648 0 0 1 -21.562,8.483 v 134.802 c 0,27.713 -22.467,50.18 -50.18,50.18 H 427.17 c -27.713,0 -50.18,-22.467 -50.18,-50.18 V 794.841 a 327.445,327.445 0 0 1 -18.881,-7.956 l -97.683,97.683 c -19.601,19.601 -51.375,19.601 -70.959,10e-4 L 98.461,793.573 c -19.601,-19.601 -19.601,-51.375 0,-70.96 l 97.335,-97.335 a 326.356,326.356 0 0 1 -8.191,-19.24 H 50.18 C 22.467,606.038 0,583.571 0,555.858 V 427.17 c 0,-27.713 22.467,-50.18 50.18,-50.18 h 133.523 a 328.832,328.832 0 0 1 8.805,-22.517 L 98.461,260.426 c -19.6,-19.6 -19.6,-51.37 0.001,-70.971 L 189.46,98.467 c 19.591,-19.608 51.365,-19.608 70.966,-0.006 l 90.524,90.524 a 328.546,328.546 0 0 1 26.041,-11.3 V 50.18 C 376.991,22.467 399.458,0 427.171,0 h 128.698 c 27.713,0 50.18,22.467 50.18,50.18 v 124.312 a 327.958,327.958 0 0 1 28.775,11.758 L 722.608,98.466 C 742.2,78.857 773.989,78.857 793.573,98.459 l 91.012,91.002 c 19.582,19.599 19.582,51.359 -0.007,70.965 l -88.152,88.143 a 327.948,327.948 0 0 1 11.487,28.421 H 932.86 Z m -297.98,109.409 c 0,82.007 -66.473,148.48 -148.48,148.48 -82.007,0 -148.48,-66.473 -148.48,-148.48 0,-82.007 66.473,-148.48 148.48,-148.48 82.007,0 148.48,66.473 148.48,148.48 z m -40.96,0 c 0,-59.386 -48.134,-107.52 -107.52,-107.52 -59.386,0 -107.52,48.134 -107.52,107.52 0,59.386 48.134,107.52 107.52,107.52 59.386,0 107.52,-48.134 107.52,-107.52 z"
     id="path2" />
</svg>
