<?xml version="1.0" encoding="UTF-8" standalone="no"?>
<!-- Uploaded to: SVG Repo, www.svgrepo.com, Generator: SVG Repo Mixer Tools -->

<svg
   fill="#000000"
   width="800"
   height="800"
   viewBox="0 0 1024 1024"
   version="1.1"
   id="svg6"
   xmlns="http://www.w3.org/2000/svg"
   xmlns:svg="http://www.w3.org/2000/svg">
  <defs
     id="defs10" />
  <path
     d="M 512,928 C 741.75,928 928,741.75 928,512 928,282.25 741.75,96 512,96 282.25,96 96,282.25 96,512 96,741.75 282.25,928 512,928 Z m 0,96 C 229.23,1024 0,794.77 0,512 0,229.23 229.23,0 512,0 c 282.77,0 512,229.23 512,512 0,282.77 -229.23,512 -512,512 z"
     id="path2" />
  <path
     d="m 454.83,624.659 v -28.351 c 0,-11.937 0.971,-22.631 2.913,-32.082 1.942,-9.451 4.994,-18.403 9.155,-26.859 4.161,-8.456 9.71,-16.662 16.646,-24.621 6.936,-7.959 15.675,-16.414 26.217,-25.367 l 37.453,-32.082 c 10.542,-8.456 19.559,-17.906 27.049,-28.351 7.49,-10.445 11.236,-23.129 11.236,-38.05 0,-19.398 -6.797,-35.688 -20.391,-48.868 -13.594,-13.18 -32.875,-19.771 -57.844,-19.771 -12.762,0 -24.275,2.114 -34.54,6.342 -10.265,4.228 -19.143,9.948 -26.633,17.16 -7.491,7.212 -13.178,15.543 -17.062,24.994 -3.884,9.451 -6.103,19.149 -6.658,29.097 L 320,389.643 c 3.329,-23.875 10.404,-45.138 21.223,-63.79 10.819,-18.652 24.83,-34.444 42.03,-47.376 17.201,-12.932 36.898,-22.756 59.092,-29.47 22.194,-6.714 46.053,-10.072 71.577,-10.072 23.859,0 46.469,3.109 67.831,9.326 21.362,6.217 40.227,15.419 56.596,27.605 16.368,12.186 29.269,27.232 38.701,45.138 9.432,17.906 14.149,38.548 14.149,61.925 0,15.917 -1.942,29.843 -5.826,41.781 -3.884,11.938 -9.433,22.88 -16.646,32.828 -7.213,9.948 -15.952,19.522 -26.217,28.724 -10.265,9.202 -21.778,18.776 -34.54,28.724 -11.097,8.456 -20.114,15.916 -27.049,22.383 -6.935,6.467 -12.484,12.932 -16.646,19.398 -4.161,6.466 -7.074,13.429 -8.739,20.89 -1.665,7.461 -2.497,16.662 -2.497,27.605 v 19.398 h -98.21 z m -16.645,103.705 c 0,-15.917 6.52,-29.595 19.559,-41.035 13.039,-11.44 28.714,-17.16 47.024,-17.16 17.756,0 33.291,5.471 46.608,16.414 13.317,10.943 19.975,24.372 19.975,40.289 0,15.917 -6.52,29.595 -19.559,41.035 -13.039,11.44 -28.714,17.16 -47.024,17.16 -8.878,0 -17.339,-1.492 -25.385,-4.477 -8.046,-2.985 -15.12,-6.963 -21.223,-11.937 -6.103,-4.974 -10.958,-10.943 -14.565,-17.906 -3.607,-6.963 -5.41,-14.424 -5.41,-22.383 z"
     id="path4" />
</svg>
