<?xml version="1.0" encoding="UTF-8" standalone="no"?>
<!-- Uploaded to: SVG Repo, www.svgrepo.com, Generator: SVG Repo Mixer Tools -->

<svg
   fill="#000000"
   width="699.11902"
   height="698.18066"
   viewBox="0 0 894.87234 893.67125"
   version="1.1"
   id="svg4"
   xmlns="http://www.w3.org/2000/svg"
   xmlns:svg="http://www.w3.org/2000/svg">
  <defs
     id="defs8" />
  <path
     d="m 447.46867,356.30563 338.201,-337.285001 c 25.023,-24.9639999 65.545,-24.9169999 90.51,0.105 24.965,25.022 24.917,65.545 -0.105,90.510001 l -338.057,337.141 337.91,337.623 c 25.003,24.984 25.017,65.507 0.033,90.51 -24.984,25.003 -65.507,25.017 -90.51,0.033 l -338.066,-337.779 -338.182,337.266 c -25.023001,24.964 -65.545001,24.917 -90.510001,-0.105 -24.9650001,-25.022 -24.9170001,-65.545 0.105,-90.51 L 356.83567,446.69263 19.127669,109.27163 c -25.0030001,-24.984001 -25.0170001,-65.507001 -0.033,-90.510001 24.984,-25.0029999 65.507,-25.0169999 90.510001,-0.033 l 337.863,337.577001 z"
     id="path2" />
</svg>
