<?xml version="1.0" encoding="UTF-8" standalone="no"?>
<!-- Uploaded to: SVG Repo, www.svgrepo.com, Generator: SVG Repo Mixer Tools -->

<svg
   fill="#000000"
   width="756.94775"
   height="637.47009"
   viewBox="0 0 968.89313 815.96172"
   version="1.1"
   id="svg4"
   xmlns="http://www.w3.org/2000/svg"
   xmlns:svg="http://www.w3.org/2000/svg">
  <defs
     id="defs8" />
  <path
     d="m 493.183,56.114698 a 10.234,10.234 0 0 0 -3.406,-3.406 c -4.827,-2.946 -11.129,-1.421 -14.075,3.406 L 52.7,749.1877 a 10.236,10.236 0 0 0 -1.499,5.335 c 0,5.655 4.585,10.24 10.24,10.24 h 846.004 c 1.882,0 3.728,-0.519 5.335,-1.499 4.827,-2.946 6.352,-9.248 3.406,-14.075 L 493.184,56.115698 Z m 43.703,-26.674 423.002,693.073002 c 17.678,28.964 8.528,66.774 -20.436,84.452 a 61.445,61.445 0 0 1 -32.008,8.996 H 61.44 C 27.508,815.9617 0,788.4537 0,754.5217 a 61.445,61.445 0 0 1 8.996,-32.008 L 431.998,29.440698 C 449.676,0.4766982 487.486,-8.6723018 516.45,9.0046982 A 61.438,61.438 0 0 1 536.886,29.440698 Z M 484.442,670.5537 c 22.622,0 40.96,-18.338 40.96,-40.96 0,-22.622 -18.338,-40.96 -40.96,-40.96 -22.622,0 -40.96,18.338 -40.96,40.96 0,22.622 18.338,40.96 40.96,40.96 z m 0,-440.32 c -22.622,0 -40.96,18.338 -40.96,40.96 v 225.28 c 0,22.622 18.338,40.96 40.96,40.96 22.622,0 40.96,-18.338 40.96,-40.96 v -225.28 c 0,-22.622 -18.338,-40.96 -40.96,-40.96 z"
     id="path2" />
</svg>
