<?xml version="1.0" encoding="UTF-8" standalone="no"?>
<!-- Uploaded to: SVG Repo, www.svgrepo.com, Generator: SVG Repo Mixer Tools -->

<svg
   fill="#000000"
   width="688.12756"
   height="688.35199"
   viewBox="0 0 880.80328 881.09055"
   version="1.1"
   id="svg10"
   xmlns="http://www.w3.org/2000/svg"
   xmlns:svg="http://www.w3.org/2000/svg">
  <defs
     id="defs14" />
  <path
     d="m 116.04064,48.427955 c 41.846,-15.492 89.309,-5.554 121.432,26.561 44.941,44.941005 44.941,117.826005 -0.002,162.769005 -44.953,44.953 -117.828,44.953 -162.781001,0 -32.25,-32.25 -42.125,-79.975 -26.367,-121.934 3.977,-10.589 -1.383,-22.396005 -11.972,-26.373005 -10.589,-3.977 -22.396,1.383 -26.3729999,11.972005 -21.3570001,56.869 -7.968,121.581 35.7489999,165.298 60.949001,60.949 159.758001,60.949 220.707001,0 60.939,-60.939 60.939,-159.758 0,-220.697005 -43.541,-43.5299996 -107.898,-57.005 -164.614,-36.008 -10.607001,3.927 -16.023001,15.709 -12.096001,26.316 3.927,10.607 15.709001,16.023 26.316001,12.096 z"
     id="path2" />
  <path
     d="m 89.750639,46.404955 52.879001,52.869 c 4.331,4.334005 4.331,11.381005 -0.001,15.713005 l -27.924,27.924 c -4.341,4.341 -11.373,4.341 -15.714001,0 l -52.594,-52.584005 c -7.999,-7.997 -20.966,-7.996 -28.963,0.003 -7.9969999,7.999 -7.9959999,20.966005 0.003,28.963005 l 52.593,52.582 c 20.336,20.336 53.302001,20.336 73.639001,-10e-4 l 27.924,-27.924 c 20.326,-20.326 20.326,-53.297005 0.006,-73.634005 l -52.887,-52.877 c -7.999,-7.9969996 -20.966001,-7.9959996 -28.963001,0.003 -7.997,7.999 -7.996,20.966 0.003,28.963 z M 764.76264,832.95796 c -41.846,15.492 -89.309,5.554 -121.432,-26.561 -44.941,-44.941 -44.941,-117.826 0.002,-162.769 44.953,-44.953 117.828,-44.953 162.781,0 32.25,32.25 42.125,79.975 26.367,121.934 -3.977,10.589 1.383,22.396 11.972,26.373 10.589,3.977 22.396,-1.383 26.373,-11.972 21.357,-56.869 7.968,-121.581 -35.749,-165.298 -60.949,-60.949 -159.758,-60.949 -220.707,0 -60.939,60.939 -60.939,159.758 0,220.697 43.541,43.53 107.898,57.005 164.614,36.008 10.607,-3.927 16.023,-15.709 12.096,-26.316 -3.927,-10.607 -15.709,-16.023 -26.316,-12.096 z"
     id="path4" />
  <path
     d="m 791.05464,834.98196 -52.869,-52.869 c -4.34,-4.34 -4.34,-11.377 -0.006,-15.708 l 27.923,-27.933 c 4.339,-4.339 11.37,-4.339 15.711,0.003 l 52.594,52.584 c 7.999,7.997 20.966,7.996 28.963,-0.003 7.997,-7.999 7.996,-20.966 -0.003,-28.963 l -52.593,-52.582 c -20.336,-20.336 -53.302,-20.336 -73.639,0.001 l -27.917,27.927 c -20.335,20.319 -20.335,53.299 0.003,73.638 l 52.869,52.869 c 7.998,7.998 20.965,7.998 28.963,0 7.998,-7.998 7.998,-20.965 0,-28.963 z m -188.243,-168.473 -391.26,-391.26 c -7.998,-7.998 -20.965,-7.998 -28.963,0 -7.998,7.998 -7.998,20.965 0,28.963 l 391.26,391.26 c 7.998,7.998 20.965,7.998 28.963,0 7.998,-7.998 7.998,-20.965 0,-28.963 z m -330.701,-458.928 400.374,400.374 c 7.998,7.998 20.965,7.998 28.963,0 7.998,-7.998 7.998,-20.965 0,-28.963 l -400.374,-400.374 c -7.998,-7.998 -20.965,-7.998 -28.963,0 -7.998,7.998 -7.998,20.965 0,28.963 z m 255.917,112.52 176.732,-176.732 c 7.998,-7.998 7.998,-20.965 0,-28.963 -7.998,-7.998 -20.965,-7.998 -28.963,0 l -176.732,176.732 c -7.998,7.998 -7.998,20.965 0,28.963 7.998,7.998 20.965,7.998 28.963,0 z m 214.393,-149.914 -182.548,180.777 c -8.037,7.959 -8.1,20.926 -0.141,28.963 7.959,8.037 20.926,8.1 28.963,0.141 l 182.548,-180.777 c 8.037,-7.959 8.1,-20.926 0.141,-28.963 -7.959,-8.037 -20.926,-8.1 -28.963,-0.141 z"
     id="path6" />
  <path
     d="m 874.06364,59.327955 a 20.48,20.48 0 0 1 4.873,21.176 l -28.201,81.531005 a 20.481,20.481 0 0 1 -12.659,12.66 l -81.541,28.211 a 20.48,20.48 0 0 1 -21.179,-4.874 l -53.32,-53.33 a 20.48,20.48 0 0 1 -4.872,-21.175 l 28.201,-81.531005 a 20.478,20.478 0 0 1 12.658,-12.659 l 81.531,-28.2109996 a 20.478,20.478 0 0 1 21.178,4.873 l 53.33,53.3299996 z m -73.228,-15.302 -60.012,20.765 -20.758,60.014005 35.194,35.201 60.021,-20.766 20.758,-60.012005 -35.202,-35.202 z m -421.165,544.570005 -242.565,242.565 c -7.497,7.497 -16.502,8.466 -19.734,5.237 l -74.541001,-74.541 c -3.223,-3.226 -2.254,-12.226 5.248,-19.733 l 242.089001,-242.079 c 7.998,-7.998 7.998,-20.965 10e-4,-28.963 -7.997,-7.998 -20.965,-7.998 -28.963,-10e-4 l -242.094001,242.084 c -22.2799999,22.295 -26.0029999,56.877 -5.249,77.648 l 74.553,74.553 c 20.778001,20.76 55.375001,17.036 77.654001,-5.243 l 242.565,-242.565 c 7.998,-7.998 7.998,-20.965 0,-28.963 -7.998,-7.998 -20.965,-7.998 -28.963,0 z"
     id="path8" />
</svg>
